<?xml version="1.0" encoding="UTF-8"?><svg id="Ebene_1" xmlns="http://www.w3.org/2000/svg" viewBox="0 0 1366 768"><defs><style>.cls-1,.cls-2{fill:none;}.cls-3,.cls-4{fill:#024059;}.cls-5{fill:#f28e13;}.cls-6{stroke-width:10.86px;}.cls-6,.cls-4,.cls-7,.cls-8,.cls-2{stroke-miterlimit:10;}.cls-6,.cls-7{fill:#011c40;}.cls-6,.cls-7,.cls-2{stroke:#011c40;}.cls-4{stroke:#024059;}.cls-7{stroke-width:7.33px;}.cls-8{fill:#a62f03;stroke:#a62f03;stroke-width:12px;}.cls-2{stroke-width:26.9px;}</style></defs><path class="cls-5" d="M680.09,348.97l-139.89,145.66s128.94,151.12,284.8-3.66l-144.91-142Z"/><circle class="cls-2" cx="679.25" cy="366.75" r="189.25"/><rect class="cls-6" x="533.48" y="390.53" width="21" height="82.43" transform="translate(432.46 -253.74) rotate(42.32)"/><path class="cls-1" d="M674,349l-125.8,132.43,67.8,48.57s51,22,89,11"/><rect class="cls-7" x="802.54" y="400.38" width="21" height="76.7" transform="translate(-72.1 703.4) rotate(-45)"/><rect class="cls-8" x="680" y="280" width="1" height="76"/><rect class="cls-4" x="687" y="270" width="45.58" height="40.71"/><polyline class="cls-3" points="738 277 738 310.71 732.58 317.8 759.75 317.8 749.12 297.4 762.71 277"/><circle class="cls-8" cx="680.5" cy="263.5" r="3.5"/></svg>