<?xml version="1.0" encoding="UTF-8"?><svg id="Ebene_1" xmlns="http://www.w3.org/2000/svg" viewBox="0 0 1366 926.5"><defs><style>.cls-1{stroke-width:.07px;}.cls-1,.cls-2,.cls-3,.cls-4{fill:#fff;}.cls-1,.cls-3,.cls-4{stroke-miterlimit:10;}.cls-1,.cls-4{stroke:#000;}.cls-5{fill:#024059;}.cls-3{stroke:#fff;stroke-width:.1px;}.cls-4{stroke-width:.21px;}</style></defs><g><path class="cls-5" d="M671.31,817.28c-47.79,0-94.15-9.36-137.79-27.82-42.15-17.83-80.01-43.35-112.52-75.86-32.51-32.51-58.03-70.37-75.86-112.52-18.46-43.64-27.82-90-27.82-137.79s9.36-94.15,27.82-137.79c17.83-42.15,43.35-80.01,75.86-112.52,32.51-32.51,70.37-58.03,112.52-75.86,43.64-18.46,90-27.82,137.79-27.82s94.15,9.36,137.79,27.82c42.15,17.83,80.01,43.35,112.52,75.86,32.51,32.51,58.03,70.37,75.86,112.52,18.46,43.64,27.82,90,27.82,137.79s-9.36,94.15-27.82,137.79c-17.83,42.15-43.35,80.01-75.86,112.52s-70.37,58.03-112.52,75.86c-43.64,18.46-90,27.82-137.79,27.82Z"/><path class="cls-5" d="M671.31,109.83c47.72,0,94.01,9.35,137.58,27.78,42.09,17.8,79.89,43.29,112.35,75.75,32.46,32.46,57.95,70.26,75.75,112.35,18.43,43.58,27.78,89.87,27.78,137.58s-9.35,94.01-27.78,137.58c-17.8,42.09-43.29,79.89-75.75,112.35-32.46,32.46-70.26,57.95-112.35,75.75-43.58,18.43-89.87,27.78-137.58,27.78s-94.01-9.35-137.58-27.78c-42.09-17.8-79.89-43.29-112.35-75.75-32.46-32.46-57.95-70.26-75.75-112.35-18.43-43.58-27.78-89.87-27.78-137.58s9.35-94.01,27.78-137.58c17.8-42.09,43.29-79.89,75.75-112.35,32.46-32.46,70.26-57.95,112.35-75.75,43.58-18.43,89.87-27.78,137.58-27.78m0-1.03c-195.78,0-354.5,158.72-354.5,354.5s158.72,354.5,354.5,354.5,354.5-158.72,354.5-354.5S867.1,108.8,671.31,108.8h0Z"/></g><rect class="cls-1" x="588.06" y="676.12" width="137.83" height="10.78"/><path class="cls-4" d="M521.7,416.34l372.66,5.1-45.94,163.36s-5.1,15.31-15.31,15.31h-260.35l-61.26-183.78h10.21Z"/><polygon class="cls-2" points="434.92 344.87 429.81 365.29 485.96 380.6 557.43 589.9 547.22 625.64 562.54 625.64 572.75 600.11 577.85 579.69 526.8 441.86 501.28 365.29 434.92 344.87"/><circle class="cls-3" cx="547.29" cy="676.2" r="56.07"/><g><circle class="cls-5" cx="547.71" cy="676.44" r="38.62"/><path class="cls-5" d="M547.71,638.34c21.01,0,38.1,17.09,38.1,38.1s-17.09,38.1-38.1,38.1-38.1-17.09-38.1-38.1,17.09-38.1,38.1-38.1m0-1.04c-21.61,0-39.13,17.52-39.13,39.13s17.52,39.13,39.13,39.13,39.13-17.52,39.13-39.13-17.52-39.13-39.13-39.13h0Z"/></g><circle class="cls-3" cx="776.49" cy="681.35" r="56.07"/><g><circle class="cls-5" cx="776.91" cy="681.59" r="38.62"/><path class="cls-5" d="M776.91,643.49c21.01,0,38.1,17.09,38.1,38.1s-17.09,38.1-38.1,38.1-38.1-17.09-38.1-38.1,17.09-38.1,38.1-38.1m0-1.04c-21.61,0-39.13,17.52-39.13,39.13s17.52,39.13,39.13,39.13,39.13-17.52,39.13-39.13-17.52-39.13-39.13-39.13h0Z"/></g></svg>