<?xml version="1.0" encoding="UTF-8"?><svg id="Ebene_1" xmlns="http://www.w3.org/2000/svg" viewBox="0 0 1366 922.75"><defs><style>.cls-1,.cls-2{fill:#024059;}.cls-3{font-family:ProximaNova-Regular, 'Proxima Nova';font-size:130.14px;stroke-width:2.43px;}.cls-3,.cls-2,.cls-4,.cls-5,.cls-6{stroke-miterlimit:10;}.cls-3,.cls-4,.cls-5{fill:#fff;}.cls-3,.cls-4,.cls-5,.cls-6{stroke:#fff;}.cls-2{stroke:#024059;stroke-width:2.43px;}.cls-4,.cls-6{stroke-width:9px;}.cls-5{stroke-width:3.52px;}.cls-6{fill:none;}</style></defs><g><path class="cls-1" d="M674.25,818.31c-47.79,0-94.15-9.36-137.79-27.82-42.15-17.83-80.01-43.35-112.52-75.86-32.51-32.51-58.03-70.37-75.86-112.52-18.46-43.64-27.82-90-27.82-137.79s9.36-94.15,27.82-137.79c17.83-42.15,43.35-80.01,75.86-112.52,32.51-32.51,70.37-58.03,112.52-75.86,43.64-18.46,90-27.82,137.79-27.82s94.15,9.36,137.79,27.82c42.15,17.83,80.01,43.35,112.52,75.86s58.03,70.37,75.86,112.52c18.46,43.64,27.82,90,27.82,137.79s-9.36,94.15-27.82,137.79c-17.83,42.15-43.35,80.01-75.86,112.52s-70.37,58.03-112.52,75.86c-43.64,18.46-90,27.82-137.79,27.82Z"/><path class="cls-1" d="M674.25,110.86c47.72,0,94.01,9.35,137.58,27.78,42.09,17.8,79.89,43.29,112.35,75.75,32.46,32.46,57.95,70.26,75.75,112.35,18.43,43.58,27.78,89.87,27.78,137.58s-9.35,94.01-27.78,137.58c-17.8,42.09-43.29,79.89-75.75,112.35-32.46,32.46-70.26,57.95-112.35,75.75-43.58,18.43-89.87,27.78-137.58,27.78s-94.01-9.35-137.58-27.78c-42.09-17.8-79.89-43.29-112.35-75.75-32.46-32.46-57.95-70.26-75.75-112.35-18.43-43.58-27.78-89.87-27.78-137.58s9.35-94.01,27.78-137.58c17.8-42.09,43.29-79.89,75.75-112.35,32.46-32.46,70.26-57.95,112.35-75.75,43.58-18.43,89.87-27.78,137.58-27.78m0-1.04c-195.78,0-354.5,158.72-354.5,354.5s158.72,354.5,354.5,354.5,354.5-158.71,354.5-354.5S870.04,109.82,674.25,109.82h0Z"/></g><g><path class="cls-1" d="M672.95,592.92c-11.5,0-20.85-9.35-20.85-20.85s9.35-20.85,20.85-20.85,20.85,9.35,20.85,20.85-9.35,20.85-20.85,20.85Z"/><path class="cls-1" d="M672.95,552.22c10.95,0,19.85,8.91,19.85,19.85s-8.91,19.85-19.85,19.85-19.85-8.91-19.85-19.85,8.91-19.85,19.85-19.85m0-2c-12.07,0-21.85,9.78-21.85,21.85s9.78,21.85,21.85,21.85,21.85-9.78,21.85-21.85-9.78-21.85-21.85-21.85h0Z"/></g><rect class="cls-6" x="630.66" y="358.44" width="339.34" height="261.6" rx="21.89" ry="21.89"/><text class="cls-3" transform="translate(681.82 514.14)"><tspan x="0" y="0">&lt; / &gt;</tspan></text><path class="cls-5" d="M635.03,564.32h329.48c2.69,0,4.88,2.19,4.88,4.88v30.01c0,9.19-7.47,16.66-16.66,16.66h-302.25c-10.94,0-19.82-8.88-19.82-19.82v-27.36c0-2.41,1.96-4.37,4.37-4.37Z"/><rect class="cls-2" x="827.09" y="586.82" width="119.8" height="19.94" rx="9.97" ry="9.97"/><g><path class="cls-4" d="M572.3,255.09c-2.56,1.61-5.88,3.21-5.88,3.21"/><path class="cls-4" d="M572.3,251.81c4.74-.34,2.85,1.49,0,3.29"/><path class="cls-4" d="M783.05,563.96c-.78-2.86-2.17-6.43-4.5-9.5-3.57-4.7-10.33-9.99-23.4-15.13-37.41-14.71-105.93-30.27-105.93-30.27,0,0-36.5-29.01-15.13-30.27,7.15-.42,37.83-52.96,37.83-52.96,29.84-7.99,15.13-37.83,15.13-37.83l7.57-7.57s-7.15-14.71,0-15.13c7.15-.42,0-52.96,0-52.96-38.25-76.08-121.06-68.1-121.06-68.1l-3.78,7.57,2.1,1.07c-3.92,.28-12.38,2.03-28.58,6.5-53.38,14.71-52.54,98.78-52.96,105.93-.42,7.15,7.57,15.13,7.57,15.13,0,0-7.15,15.55,0,30.27s22.7,22.7,22.7,22.7c0,0,7.99,7.99,7.57,15.13s23.12,30.69,23.12,30.69l-.42,14.71c-.42,14.71-128.63,52.96-128.63,52.96,0,0-30.69,14.71-22.7,52.96,0,0-.42,37.41,7.57,37.83,7.99,.42,97.94,52.54,189.16,45.4,91.22-7.15,188.74-38.25,189.16-45.4,1.92-32.7,2.93-60.53,2.93-60.53-1.49-4.69-3.46-9.34-5.29-13.2Z"/><line class="cls-4" x1="570.2" y1="250.74" x2="570.2" y2="250.74"/><path class="cls-4" d="M572.88,251.16l-1.74,2.03"/></g></svg>