<?xml version="1.0" encoding="UTF-8"?><svg id="Ebene_1" xmlns="http://www.w3.org/2000/svg" viewBox="0 0 1366 768"><defs><style>.cls-1{fill:#011c40;}.cls-2{fill:#f28e13;}.cls-3{stroke:#f7931e;}.cls-3,.cls-4{stroke-width:20px;}.cls-3,.cls-4,.cls-5{fill:none;stroke-miterlimit:10;}.cls-4,.cls-5{stroke:#f28e13;}.cls-5{stroke-width:21.5px;}</style></defs><polygon class="cls-2" points="159 65 126 341 227 350 313 92 322 65 159 65"/><rect class="cls-2" x="331" y="122" width="72" height="279" rx="27.18" ry="27.18" transform="translate(143.84 -130) rotate(24.85)"/><path class="cls-2" d="M480,163l53,9,93-4.5s-23,27.5-31,33.5-66,6-66,6l-65-13,16-31Z"/><path class="cls-2" d="M391,363s-11,17-12,23,40,71,40,71c0,0,10-31,15-30s-43-64-43-64Z"/><ellipse class="cls-1" cx="451.7" cy="490.99" rx="63.28" ry="34.29" transform="translate(-208.23 588.93) rotate(-55.83)"/><ellipse class="cls-1" cx="504.66" cy="527.36" rx="75.85" ry="34.23" transform="translate(-204.37 700.73) rotate(-60)"/><ellipse class="cls-1" cx="561.47" cy="566.12" rx="67.45" ry="34.23" transform="translate(-188.17 837.75) rotate(-65.15)"/><ellipse class="cls-1" cx="608.82" cy="597.85" rx="52.74" ry="34.23" transform="translate(-138.08 1010.44) rotate(-73.4)"/><rect class="cls-1" x="1019" y="97" width="72" height="279" rx="27.18" ry="27.18" transform="translate(-2.64 460.88) rotate(-24.61)"/><path class="cls-1" d="M952,149l87,186-11,17-7,11-7,17-24,14s-38-2-48-7-201-127-201-127l-13,11.5-62,29.5s-7,10-34,4-52-9-60-24-1-28,0-39,22-25,22-25l49-17,42-26,13-20,16-5,36-10,202,10Z"/><rect class="cls-4" x="741.33" y="465.9" width="64.09" height="212.77" rx="18.87" ry="18.87" transform="translate(-134.49 890.7) rotate(-55.83)"/><rect class="cls-3" x="690.29" y="567.02" width="55.92" height="121.9" rx="13.83" ry="13.83" transform="translate(-204.72 869.51) rotate(-55.83)"/><rect class="cls-4" x="784.51" y="395.48" width="64.09" height="212.77" rx="18.87" ry="18.87" transform="translate(-57.3 895.57) rotate(-55.83)"/><rect class="cls-5" x="838.62" y="322.01" width="68.14" height="212.77" rx="19.57" ry="19.57" transform="translate(28.09 909.81) rotate(-55.83)"/></svg>