<?xml version="1.0" encoding="UTF-8"?><svg id="Ebene_1" xmlns="http://www.w3.org/2000/svg" viewBox="0 0 1366 768"><defs><style>.cls-1,.cls-2{fill:#024059;}.cls-3,.cls-4,.cls-5,.cls-6{fill:#fff;}.cls-2{stroke:#024059;}.cls-2,.cls-4,.cls-7{stroke-width:2px;}.cls-2,.cls-4,.cls-7,.cls-5,.cls-6{stroke-miterlimit:10;}.cls-4,.cls-7,.cls-5,.cls-6{stroke:#fff;}.cls-7{fill:none;}.cls-5{stroke-width:.77px;}.cls-6{stroke-width:.77px;}</style></defs><g><path class="cls-1" d="M674.5,738.48c-47.79,0-94.15-9.36-137.79-27.82-42.15-17.83-80.01-43.35-112.52-75.86-32.51-32.51-58.03-70.37-75.86-112.52-18.46-43.64-27.82-90-27.82-137.79s9.36-94.15,27.82-137.79c17.83-42.15,43.35-80.01,75.86-112.52,32.51-32.51,70.37-58.03,112.52-75.86,43.64-18.46,90-27.82,137.79-27.82s94.15,9.36,137.79,27.82c42.15,17.83,80.01,43.35,112.52,75.86,32.51,32.51,58.03,70.37,75.86,112.52,18.46,43.64,27.82,90,27.82,137.79s-9.36,94.15-27.82,137.79c-17.83,42.15-43.35,80.01-75.86,112.52-32.51,32.51-70.37,58.03-112.52,75.86-43.64,18.46-90,27.82-137.79,27.82Z"/><path class="cls-1" d="M674.5,31.03c47.72,0,94.01,9.35,137.58,27.78,42.09,17.8,79.89,43.29,112.35,75.75,32.46,32.46,57.95,70.26,75.75,112.35,18.43,43.58,27.78,89.87,27.78,137.58s-9.35,94.01-27.78,137.58c-17.8,42.09-43.29,79.89-75.75,112.35-32.46,32.46-70.26,57.95-112.35,75.75-43.58,18.43-89.87,27.78-137.58,27.78s-94.01-9.35-137.58-27.78c-42.09-17.8-79.89-43.29-112.35-75.75-32.46-32.46-57.95-70.26-75.75-112.35-18.43-43.58-27.78-89.87-27.78-137.58s9.35-94.01,27.78-137.58c17.8-42.09,43.29-79.89,75.75-112.35,32.46-32.46,70.26-57.95,112.35-75.75,43.58-18.43,89.87-27.78,137.58-27.78m0-1.03c-195.78,0-354.5,158.72-354.5,354.5s158.72,354.5,354.5,354.5,354.5-158.72,354.5-354.5S870.28,30,674.5,30h0Z"/></g><line class="cls-7" x1="422.5" y1="298.45" x2="925.55" y2="298.45"/><path class="cls-7" d="M541.91,167.1c0,72.39,58.92,130.96,131.73,130.96"/><path class="cls-7" d="M802.29,167.1c0,72.39-57.71,130.96-129.04,130.96"/><rect class="cls-4" x="626.38" y="553.51" width="93.48" height="51.41"/><rect class="cls-4" x="636.35" y="609.81" width="73.71" height="40.54"/><polygon class="cls-3" points="710.07 549.56 745.74 492.09 745.74 492.09 601.22 492.09 636.35 549.56 710.07 549.56"/><g><polygon class="cls-3" points="617.69 482.08 673.17 375.3 729.2 482.08 617.69 482.08"/><path class="cls-3" d="M673.21,396.9l39.45,75.18h-78.51l39.06-75.18m-.09-43.21l-71.9,138.39h144.52l-72.62-138.39h0Z"/></g><line class="cls-2" x1="673.19" y1="492.24" x2="673.12" y2="353.69"/><rect class="cls-6" x="783.43" y="149" width="37.65" height="37.65"/><rect class="cls-6" x="522.76" y="149" width="37.65" height="37.65"/><rect class="cls-5" x="933.95" y="277.92" width="40.91" height="40.91" transform="translate(68.55 762.26) rotate(-45)"/><rect class="cls-5" x="373.05" y="278.03" width="40.91" height="40.91" transform="translate(-95.8 365.67) rotate(-45)"/><rect class="cls-5" x="654.64" y="279" width="37.65" height="37.65"/><g><path class="cls-1" d="M673.19,513.09c-11.5,0-20.85-9.35-20.85-20.85s9.35-20.85,20.85-20.85,20.85,9.35,20.85,20.85-9.35,20.85-20.85,20.85Z"/><path class="cls-1" d="M673.19,472.39c10.95,0,19.85,8.91,19.85,19.85s-8.91,19.85-19.85,19.85-19.85-8.91-19.85-19.85,8.91-19.85,19.85-19.85m0-2c-12.07,0-21.85,9.78-21.85,21.85s9.78,21.85,21.85,21.85,21.85-9.78,21.85-21.85-9.78-21.85-21.85-21.85h0Z"/></g></svg>