<?xml version="1.0" encoding="UTF-8"?><svg id="Ebene_1" xmlns="http://www.w3.org/2000/svg" viewBox="0 0 1366 768"><defs><style>.cls-1{fill:#fff;}.cls-2{fill:#a62f03;}</style></defs><path class="cls-2" d="M781,91s16-16,26-13,66,19,82,40,14,14,29,15,43,27,38,41-44,33-33,58-5,40-5,40c0,0,65-16,75.5,0s-.5,22,13.5,31,30,12,30,12l14-7s-1-17,12-16,4-9,24-13,35.5,1.5,35.5,1.5l7.5,12.5v46.5s-8-4.5-7.5,21,4.5,8.5,7.5,43,3,47.5-7.5,48-41.5-12.5-41.5-12.5l-23-26s-22,20-16,28,22-4,23,22,7,52,7,52v23s-3,18-25,14-26-32-36-55-16,2-16,2c0,0-13,11-18,8s10,9-12,14-53-6-53-6l-18-31-10-24s-13,8-12,12,10,21,9,35-12,35.16-19.5,45.58-20.5,18.42-20.5,18.42c0,0,16-7,2,12s-8,38-8,38c0,0,7,0,6,10s-11,32-11,32l-11,13s-4,4-15.5,0-32.5-9-34.5-23,0-36.5,0-36.5l-23-8.5,4-24-31-20-17-27-13-8v-63.5l-13,2.5-11,12-11.5,21.5s5.5,3.5-.5,11.5-23,11-23,11c0,0,14,19,12.5,31.5s-24.5,28.5-24.5,28.5l-7,23-27,9-6,17s-1,11-17,9-33-14-33-14l-22-11-25,18s-3,15-18,9-13,0-36,10-44-23-44-23l-16-35s-15,4-18-6,0-18.5,0-18.5l-19-12.5s-12,2,0-18.5,1-42.5,1-42.5v-17l-46-6s-47,7-46,24,14,25,14,25l-19,25-25,17s-6,12-32,7-30-20-30-20v-21.5l30-35.5-6-20,25-43-6-17s-4-4-1-17,19-29,46.5-43.5,23.5-37.5,23.5-37.5l13-25,57-27,43-43-4-14,7-9-23-8s-10-2-2-14l8-12,17-22,18-14,37,8,22,6,28,5,13-6-2-10,15-10,14-7,13,12,4,13,5-10,9-7,11-9,14,4,15,6,9,6,19-10,13-10,21.5,4.5,11.5,3.5,10,3,8,10,12-6-6-14,32-16s-23,14-32,6-11.5-24.37-11.5-24.37l13.5-16.63,12-6s4-8,10.5-7.5,9.5,9.5,9.5,9.5l7.5-9.5,7.5,10.5,10,12s4,8,9,6,15,2,15,2l9,13Z"/><polygon class="cls-1" points="780.82 147 816.24 147 816.24 196.41 865.24 196.41 865.24 231.82 816.65 231.82 816.65 280 780.82 280 780.82 231.41 731 231.41 731 196.41 781.24 196.41 780.82 147"/></svg>