<?xml version="1.0" encoding="UTF-8"?><svg id="Ebene_1" xmlns="http://www.w3.org/2000/svg" viewBox="0 0 500 500"><defs><style>.cls-1,.cls-2{fill:#024059;}.cls-3,.cls-4,.cls-5,.cls-6{fill:#fff;}.cls-4,.cls-2,.cls-5,.cls-6,.cls-7{stroke-miterlimit:10;}.cls-4,.cls-2,.cls-7{stroke-width:1.41px;}.cls-4,.cls-5,.cls-6,.cls-7{stroke:#fff;}.cls-2{stroke:#024059;}.cls-5{stroke-width:.54px;}.cls-6{stroke-width:.54px;}.cls-7{fill:none;}</style></defs><g><path class="cls-1" d="M249.66,499.63c-66.68,0-129.37-25.97-176.52-73.12C25.99,379.37,.03,316.68,.03,250S25.99,120.63,73.14,73.48,182.98,.36,249.66,.36s129.37,25.97,176.52,73.12c47.15,47.15,73.12,109.84,73.12,176.52s-25.97,129.37-73.12,176.52-109.84,73.12-176.52,73.12Z"/><path class="cls-1" d="M249.66,.73c33.65,0,66.3,6.59,97.03,19.59,29.68,12.55,56.34,30.53,79.23,53.42,22.89,22.89,40.87,49.55,53.42,79.23,13,30.73,19.59,63.38,19.59,97.03s-6.59,66.3-19.59,97.03c-12.55,29.68-30.53,56.34-53.42,79.23s-49.55,40.87-79.23,53.42c-30.73,13-63.38,19.59-97.03,19.59s-66.3-6.59-97.03-19.59c-29.68-12.55-56.34-30.53-79.23-53.42-22.89-22.89-40.87-49.55-53.42-79.23C6.98,316.3,.39,283.65,.39,250s6.59-66.3,19.59-97.03c12.55-29.68,30.53-56.34,53.42-79.23,22.89-22.89,49.55-40.87,79.23-53.42C183.37,7.32,216.01,.73,249.66,.73m0-.73C111.59,0-.34,111.93-.34,250s111.93,250,250,250,250-111.93,250-250S387.73,0,249.66,0h0Z"/></g><line class="cls-7" x1="71.95" y1="189.32" x2="426.71" y2="189.32"/><path class="cls-7" d="M156.15,96.69c0,51.05,41.55,92.36,92.9,92.36"/><path class="cls-7" d="M339.78,96.69c0,51.05-40.7,92.36-91,92.36"/><rect class="cls-4" x="215.73" y="369.19" width="65.92" height="36.26"/><rect class="cls-4" x="222.76" y="408.9" width="51.99" height="28.59"/><polygon class="cls-3" points="274.75 366.4 299.9 325.87 299.9 325.87 197.99 325.87 222.76 366.4 274.75 366.4"/><g><polygon class="cls-3" points="209.6 318.82 248.72 243.51 288.24 318.82 209.6 318.82"/><path class="cls-3" d="M248.75,258.75l27.82,53.02h-55.37l27.54-53.02m-.06-30.47l-50.7,97.6h101.92l-51.21-97.6h0Z"/></g><line class="cls-2" x1="248.74" y1="325.98" x2="248.69" y2="228.27"/><rect class="cls-6" x="326.49" y="83.92" width="26.55" height="26.55"/><rect class="cls-6" x="142.65" y="83.92" width="26.55" height="26.55"/><rect class="cls-5" x="432.63" y="174.84" width="28.85" height="28.85" transform="translate(-2.89 371.55) rotate(-45)"/><rect class="cls-5" x="37.08" y="174.91" width="28.85" height="28.85" transform="translate(-118.8 91.87) rotate(-45)"/><rect class="cls-5" x="235.65" y="175.6" width="26.55" height="26.55"/><g><path class="cls-1" d="M248.74,340.69c-8.11,0-14.7-6.6-14.7-14.7s6.6-14.71,14.7-14.71,14.71,6.6,14.71,14.71-6.6,14.7-14.71,14.7Z"/><path class="cls-1" d="M248.74,311.98c7.72,0,14,6.28,14,14s-6.28,14-14,14-14-6.28-14-14,6.28-14,14-14m0-1.41c-8.51,0-15.41,6.9-15.41,15.41s6.9,15.41,15.41,15.41,15.41-6.9,15.41-15.41-6.9-15.41-15.41-15.41h0Z"/></g></svg>