<?xml version="1.0" encoding="UTF-8"?><svg id="Ebene_1" xmlns="http://www.w3.org/2000/svg" viewBox="0 0 500 500"><defs><style>.cls-1{stroke-width:2.48px;}.cls-1,.cls-2,.cls-3,.cls-4,.cls-5{stroke-miterlimit:10;}.cls-1,.cls-2,.cls-3,.cls-5{stroke:#fff;}.cls-1,.cls-3,.cls-5{fill:#fff;}.cls-6,.cls-4{fill:#024059;}.cls-2{fill:none;}.cls-2,.cls-5{stroke-width:6.35px;}.cls-3{font-family:ProximaNova-Regular, 'Proxima Nova';font-size:91.78px;stroke-width:1.72px;}.cls-4{stroke:#024059;stroke-width:1.72px;}</style></defs><g><path class="cls-6" d="M249.66,499.63c-66.68,0-129.37-25.97-176.52-73.12C25.99,379.37,.03,316.68,.03,250S25.99,120.63,73.14,73.48,182.98,.36,249.66,.36s129.37,25.97,176.52,73.12c47.15,47.15,73.12,109.84,73.12,176.52s-25.97,129.37-73.12,176.52-109.84,73.12-176.52,73.12Z"/><path class="cls-6" d="M249.66,.73c33.65,0,66.3,6.59,97.03,19.59,29.68,12.55,56.34,30.53,79.23,53.42,22.89,22.89,40.87,49.55,53.42,79.23,13,30.73,19.59,63.38,19.59,97.03s-6.59,66.3-19.59,97.03c-12.55,29.68-30.53,56.34-53.42,79.23s-49.55,40.87-79.23,53.42c-30.73,13-63.38,19.59-97.03,19.59s-66.3-6.59-97.03-19.59c-29.68-12.55-56.34-30.53-79.23-53.42-22.89-22.89-40.87-49.55-53.42-79.23C6.98,316.3,.39,283.65,.39,250s6.59-66.3,19.59-97.03c12.55-29.68,30.53-56.34,53.42-79.23,22.89-22.89,49.55-40.87,79.23-53.42C183.37,7.32,216.01,.73,249.66,.73m0-.73C111.59,0-.34,111.93-.34,250s111.93,250,250,250,250-111.93,250-250S387.73,0,249.66,0h0Z"/></g><g><path class="cls-6" d="M248.74,340.69c-8.11,0-14.7-6.6-14.7-14.7s6.6-14.71,14.7-14.71,14.71,6.6,14.71,14.71-6.6,14.7-14.71,14.7Z"/><path class="cls-6" d="M248.74,311.98c7.72,0,14,6.28,14,14s-6.28,14-14,14-14-6.28-14-14,6.28-14,14-14m0-1.41c-8.51,0-15.41,6.9-15.41,15.41s6.9,15.41,15.41,15.41,15.41-6.9,15.41-15.41-6.9-15.41-15.41-15.41h0Z"/></g><rect class="cls-2" x="218.92" y="175.33" width="239.31" height="184.48" rx="15.44" ry="15.44"/><text class="cls-3" transform="translate(255.09 285.13)"><tspan x="0" y="0">&lt; / &gt;</tspan></text><path class="cls-1" d="M222,320.52h232.35c1.9,0,3.44,1.54,3.44,3.44v21.17c0,6.48-5.26,11.75-11.75,11.75H232.9c-7.71,0-13.98-6.26-13.98-13.98v-19.3c0-1.7,1.38-3.08,3.08-3.08Z"/><rect class="cls-4" x="357.44" y="336.39" width="84.49" height="14.07" rx="7.03" ry="7.03"/><g><path class="cls-5" d="M177.76,102.45c-1.8,1.14-4.15,2.26-4.15,2.26"/><path class="cls-5" d="M177.76,100.13c3.35-.24,2.01,1.05,0,2.32"/><path class="cls-5" d="M326.39,320.26c-.55-2.02-1.53-4.53-3.18-6.7-2.52-3.31-7.28-7.05-16.5-10.67-26.38-10.38-74.7-21.34-74.7-21.34,0,0-25.74-20.46-10.67-21.34,5.04-.3,26.68-37.35,26.68-37.35,21.05-5.63,10.67-26.68,10.67-26.68l5.34-5.34s-5.04-10.38,0-10.67c5.04-.3,0-37.35,0-37.35-26.98-53.66-85.37-48.02-85.37-48.02l-2.67,5.34,1.48,.75c-2.77,.2-8.73,1.43-20.16,4.58-37.65,10.38-37.05,69.66-37.35,74.7-.3,5.04,5.34,10.67,5.34,10.67,0,0-5.04,10.97,0,21.34s16.01,16.01,16.01,16.01c0,0,5.63,5.63,5.34,10.67s16.3,21.64,16.3,21.64l-.3,10.38c-.3,10.38-90.71,37.35-90.71,37.35,0,0-21.64,10.38-16.01,37.35,0,0-.3,26.38,5.34,26.68,5.63,.3,69.07,37.05,133.4,32.02,64.33-5.04,133.1-26.98,133.4-32.02,1.36-23.06,2.06-42.69,2.06-42.69-1.05-3.31-2.44-6.59-3.73-9.31Z"/><line class="cls-5" x1="176.28" y1="99.38" x2="176.28" y2="99.38"/><path class="cls-5" d="M178.17,99.67l-1.23,1.43"/></g></svg>