<?xml version="1.0" encoding="UTF-8"?><svg id="Ebene_1" xmlns="http://www.w3.org/2000/svg" viewBox="0 0 500 500"><defs><style>.cls-1{stroke-width:.15px;}.cls-1,.cls-2,.cls-3,.cls-4,.cls-5,.cls-6,.cls-7{fill:#fff;}.cls-1,.cls-2,.cls-8,.cls-4,.cls-9,.cls-10,.cls-5,.cls-11,.cls-12,.cls-6,.cls-7{stroke-miterlimit:10;}.cls-1,.cls-4{stroke:#000;}.cls-2{stroke-width:.07px;}.cls-2,.cls-8,.cls-9,.cls-10,.cls-5,.cls-11,.cls-12,.cls-6,.cls-7{stroke:#fff;}.cls-13,.cls-8,.cls-9,.cls-10,.cls-11,.cls-12{fill:#024059;}.cls-8{stroke-width:.4px;}.cls-4{stroke-width:.05px;}.cls-9{stroke-width:.25px;}.cls-10{stroke-width:.34px;}.cls-5{stroke-width:.67px;}.cls-11{stroke-width:.37px;}.cls-12{stroke-width:.54px;}.cls-6{stroke-width:.7px;}.cls-7{stroke-width:.37px;}</style></defs><g><g><path class="cls-13" d="M249.66,499.63c-66.68,0-129.37-25.97-176.52-73.12C25.99,379.37,.03,316.68,.03,250S25.99,120.63,73.14,73.48,182.98,.36,249.66,.36s129.37,25.97,176.52,73.12c47.15,47.15,73.12,109.84,73.12,176.52s-25.97,129.37-73.12,176.52-109.84,73.12-176.52,73.12Z"/><path class="cls-13" d="M249.66,.73c33.65,0,66.3,6.59,97.03,19.59,29.68,12.55,56.34,30.53,79.23,53.42,22.89,22.89,40.87,49.55,53.42,79.23,13,30.73,19.59,63.38,19.59,97.03s-6.59,66.3-19.59,97.03c-12.55,29.68-30.53,56.34-53.42,79.23s-49.55,40.87-79.23,53.42c-30.73,13-63.38,19.59-97.03,19.59s-66.3-6.59-97.03-19.59c-29.68-12.55-56.34-30.53-79.23-53.42-22.89-22.89-40.87-49.55-53.42-79.23C6.98,316.3,.39,283.65,.39,250s6.59-66.3,19.59-97.03c12.55-29.68,30.53-56.34,53.42-79.23,22.89-22.89,49.55-40.87,79.23-53.42C183.37,7.32,216.01,.73,249.66,.73m0-.73C111.59,0-.34,111.93-.34,250s111.93,250,250,250,250-111.93,250-250S387.73,0,249.66,0h0Z"/></g><rect class="cls-4" x="190.95" y="400.09" width="97.2" height="7.6"/><path class="cls-1" d="M144.15,216.88l262.8,3.6-32.4,115.2s-3.6,10.8-10.8,10.8H180.15l-43.2-129.6h7.2Z"/><polygon class="cls-3" points="82.95 166.48 79.35 180.88 118.95 191.68 169.35 339.29 162.15 364.49 172.95 364.49 180.15 346.49 183.75 332.09 147.75 234.88 129.75 180.88 82.95 166.48"/><circle class="cls-2" cx="162.2" cy="400.14" r="39.54"/><g><path class="cls-13" d="M162.5,427.55c-15.02,0-27.23-12.22-27.23-27.23s12.22-27.23,27.23-27.23,27.23,12.22,27.23,27.23-12.22,27.23-27.23,27.23Z"/><path class="cls-13" d="M162.5,373.45c14.81,0,26.87,12.05,26.87,26.87s-12.05,26.87-26.87,26.87-26.87-12.05-26.87-26.87,12.05-26.87,26.87-26.87m0-.73c-15.24,0-27.6,12.36-27.6,27.6s12.36,27.6,27.6,27.6,27.6-12.36,27.6-27.6-12.36-27.6-27.6-27.6h0Z"/></g><circle class="cls-2" cx="323.83" cy="403.78" r="39.54"/><g><path class="cls-13" d="M324.13,431.18c-15.02,0-27.23-12.22-27.23-27.23s12.22-27.23,27.23-27.23,27.23,12.22,27.23,27.23-12.22,27.23-27.23,27.23Z"/><path class="cls-13" d="M324.13,377.08c14.81,0,26.87,12.05,26.87,26.87s-12.05,26.87-26.87,26.87-26.87-12.05-26.87-26.87,12.05-26.87,26.87-26.87m0-.73c-15.24,0-27.6,12.36-27.6,27.6s12.36,27.6,27.6,27.6,27.6-12.36,27.6-27.6-12.36-27.6-27.6-27.6h0Z"/></g></g><polygon class="cls-5" points="179.32 129.83 207.84 102.01 225.58 119.77 196.77 151.17 179.32 129.83"/><rect class="cls-5" x="243.79" y="85.92" width="42.53" height="25.03"/><polygon class="cls-5" points="305.35 119.1 323.91 104.69 350.43 132.4 333.84 151.17 305.35 119.1"/><circle class="cls-6" cx="264.79" cy="180.44" r="76.09"/><polygon class="cls-6" points="161.89 166.03 161.89 199.44 175.63 199.44 175.63 180.44 188.7 180.44 190.74 166.03 161.89 166.03"/><polygon class="cls-6" points="340.25 170.57 366.02 170.57 366.02 203.01 350.43 203.01 350.43 182.73 327.89 186.79 340.25 170.57"/><circle class="cls-12" cx="264.79" cy="180.44" r="58.66"/><circle class="cls-7" cx="265.13" cy="180.11" r="40.22"/><polygon class="cls-10" points="194.4 130.43 208.66 116.52 217.53 125.4 203.13 141.09 194.4 130.43"/><rect class="cls-8" x="254.07" y="95.98" width="22.6" height="16.98"/><polygon class="cls-11" points="313.34 123.99 323.51 116.09 338.04 131.27 328.95 141.56 313.34 123.99"/><circle class="cls-9" cx="265.13" cy="180.11" r="27.15"/></svg>