<?xml version="1.0" encoding="UTF-8"?><svg id="Ebene_1" xmlns="http://www.w3.org/2000/svg" viewBox="0 0 1366 768"><defs><style>.cls-1{fill:#011c40;}.cls-2{fill:#f28e13;}.cls-3{stroke-width:26.7px;}.cls-3,.cls-4,.cls-5{fill:none;stroke-miterlimit:10;}.cls-3,.cls-5{stroke:#f28e13;}.cls-4{stroke:#f7931e;}.cls-4,.cls-5{stroke-width:24.84px;}</style></defs><polygon class="cls-2" points="95.16 0 54.1 330.54 179.76 341.32 286.75 32.34 297.95 0 95.16 0"/><path class="cls-2" d="M416.87,70.08l19.91,9.19c16.95,7.82,24.32,27.85,16.47,44.74l-117.45,252.73c-7.85,16.89-27.95,24.24-44.89,16.42l-19.91-9.19c-16.95-7.82-24.32-27.85-16.47-44.74l117.45-252.73c7.85-16.89,27.95-24.24,44.89-16.42Z"/><path class="cls-2" d="M494.52,109.47l65.94,11.16,115.7-5.58s-28.61,34.1-38.57,41.53c-9.95,7.44-82.11,7.44-82.11,7.44l-80.87-16.12,19.91-38.43Z"/><path class="cls-2" d="M383.79,357.44s-13.69,21.08-14.93,28.52,49.76,88.03,49.76,88.03c0,0,12.44-38.43,18.66-37.2,6.22,1.24-53.5-79.35-53.5-79.35Z"/><ellipse class="cls-1" cx="459.31" cy="516.1" rx="78.54" ry="42.61" transform="translate(-225.93 604.24) rotate(-55.66)"/><ellipse class="cls-1" cx="525.21" cy="561.22" rx="94.12" ry="42.55" transform="translate(-223.82 733.76) rotate(-59.87)"/><ellipse class="cls-1" cx="595.9" cy="609.34" rx="83.68" ry="42.56" transform="translate(-208.08 892.2) rotate(-65.02)"/><ellipse class="cls-1" cx="654.74" cy="648.54" rx="65.41" ry="42.57" transform="translate(-154.85 1088.83) rotate(-73.27)"/><path class="cls-1" d="M1127.65,47.97l19.95-9.11c16.98-7.75,37.05-.32,44.83,16.6l116.39,253.22c7.78,16.92,.32,36.92-16.66,44.67l-19.95,9.11c-16.98,7.75-37.05,.32-44.83-16.6l-116.39-253.22c-7.78-16.92-.32-36.92,16.66-44.67Z"/><path class="cls-1" d="M1081.74,92.11l108.24,230.61-13.69,21.08-8.71,13.64-8.71,21.08-29.86,17.36s-47.28-2.48-59.72-8.68c-12.44-6.2-250.07-157.46-250.07-157.46l-16.17,14.26-77.14,36.58s-8.71,12.4-42.3,4.96c-33.59-7.44-64.69-11.16-74.65-29.76-9.95-18.6-1.24-34.72,0-48.35,1.24-13.64,27.37-31,27.37-31l60.96-21.08,52.25-32.24,16.17-24.8,19.91-6.2,44.79-12.4,251.31,12.4Z"/><path class="cls-5" d="M740.79,556.31l18.41-27.03c7.28-10.69,21.88-13.47,32.61-6.22l180.17,121.88c10.73,7.26,13.52,21.81,6.24,32.5l-18.41,27.03c-7.28,10.69-21.88,13.47-32.61,6.22l-180.17-121.88c-10.73-7.26-13.52-21.81-6.24-32.5Z"/><path class="cls-4" d="M718.32,657.98l19.75-28.99c5.34-7.84,16.04-9.88,23.9-4.56l97.01,65.62c7.86,5.32,9.91,15.98,4.57,23.82l-19.75,28.99c-5.34,7.84-16.04,9.88-23.9,4.56l-97.01-65.62c-7.86-5.32-9.91-15.98-4.57-23.82Z"/><path class="cls-5" d="M794.51,469.02l18.41-27.03c7.28-10.69,21.88-13.47,32.61-6.22l180.17,121.88c10.73,7.26,13.52,21.81,6.24,32.5l-18.41,27.03c-7.28,10.69-21.88,13.47-32.61,6.22l-180.17-121.88c-10.73-7.26-13.52-21.81-6.24-32.5Z"/><path class="cls-3" d="M863.42,379.28l20.26-29.75c7.55-11.09,22.69-13.97,33.82-6.45l178.73,120.91c11.13,7.53,14.02,22.62,6.47,33.7l-20.26,29.75c-7.55,11.09-22.69,13.97-33.82,6.45l-178.73-120.91c-11.13-7.53-14.02-22.62-6.47-33.7Z"/></svg>