<?xml version="1.0" encoding="utf-8"?>
<!-- Generator: Adobe Illustrator 26.5.0, SVG Export Plug-In . SVG Version: 6.00 Build 0)  -->
<svg version="1.1" id="Ebene_1" xmlns="http://www.w3.org/2000/svg" xmlns:xlink="http://www.w3.org/1999/xlink" x="0px" y="0px"
	 viewBox="0 0 500 500" style="enable-background:new 0 0 500 500;" xml:space="preserve">
<style type="text/css">
	.st0{fill:#024059;}
	.st1{fill:#FFFFFF;}
</style>
<g>
	<g>
		<path class="st0" d="M250,499.6c-66.7,0-129.4-26-176.5-73.1C26.3,379.4,0.4,316.7,0.4,250s26-129.4,73.1-176.5S183.3,0.4,250,0.4
			s129.4,26,176.5,73.1s73.1,109.8,73.1,176.5s-26,129.4-73.1,176.5S316.7,499.6,250,499.6L250,499.6L250,499.6z"/>
		<path class="st0" d="M250,0.7c33.6,0,66.3,6.6,97,19.6c29.7,12.5,56.3,30.5,79.2,53.4s40.9,49.5,53.4,79.2
			c13,30.7,19.6,63.4,19.6,97s-6.6,66.3-19.6,97c-12.5,29.7-30.5,56.3-53.4,79.2s-49.5,40.9-79.2,53.4c-30.7,13-63.4,19.6-97,19.6
			s-66.3-6.6-97-19.6c-29.7-12.5-56.3-30.5-79.2-53.4c-22.9-22.9-40.9-49.5-53.4-79.2c-13-30.7-19.6-63.4-19.6-97s6.6-66.3,19.6-97
			c12.5-29.7,30.5-56.3,53.4-79.2s49.5-40.9,79.2-53.4C183.7,7.3,216.4,0.7,250,0.7 M250,0C111.9,0,0,111.9,0,250s111.9,250,250,250
			s250-111.9,250-250S388.1,0,250,0L250,0z"/>
	</g>
	<polygon class="st1" points="208.5,258.3 228.6,278.2 107.8,408.7 80.9,378.8 	"/>
	<circle class="st1" cx="307.9" cy="177" r="111.3"/>
	<circle class="st0" cx="307.9" cy="177" r="85.4"/>
</g>
</svg>
