<?xml version="1.0" encoding="UTF-8"?><svg id="Ebene_1" xmlns="http://www.w3.org/2000/svg" viewBox="0 0 1366 768"><defs><style>.cls-1{fill:#fff;}.cls-2{fill:#a62f03;}</style></defs><path class="cls-2" d="M855.58,53.03s19.5-19.5,31.68-15.84c12.18,3.66,80.42,23.15,99.91,48.74,19.5,25.59,17.06,17.06,35.34,18.28,18.28,1.22,52.39,32.9,46.3,49.96s-53.61,40.21-40.21,70.67c13.4,30.46-6.09,48.74-6.09,48.74,0,0,79.2-19.5,91.99,0,12.79,19.5-.61,26.81,16.45,37.77,17.06,10.97,36.55,14.62,36.55,14.62l17.06-8.53s-1.22-20.71,14.62-19.5c15.84,1.22,4.87-10.97,29.24-15.84s43.26,1.83,43.26,1.83l9.14,15.23v56.66s-9.75-5.48-9.14,25.59,5.48,10.36,9.14,52.39,3.66,57.88-9.14,58.49-50.57-15.23-50.57-15.23l-28.02-31.68s-26.81,24.37-19.5,34.12,26.81-4.87,28.02,26.81c1.22,31.68,8.53,63.36,8.53,63.36v28.02s-3.66,21.93-30.46,17.06c-26.81-4.87-31.68-38.99-43.86-67.02-12.18-28.02-19.5,2.44-19.5,2.44,0,0-15.84,13.4-21.93,9.75-6.09-3.66,12.18,10.97-14.62,17.06-26.81,6.09-64.58-7.31-64.58-7.31l-21.93-37.77-12.18-29.24s-15.84,9.75-14.62,14.62,12.18,25.59,10.97,42.65c-1.22,17.06-14.62,42.84-23.76,55.54-9.14,12.7-24.98,22.44-24.98,22.44,0,0,19.5-8.53,2.44,14.62-17.06,23.15-9.75,46.3-9.75,46.3,0,0,8.53,0,7.31,12.18-1.22,12.18-13.4,38.99-13.4,38.99l-13.4,15.84s-4.87,4.87-18.89,0c-14.01-4.87-39.6-10.97-42.04-28.02s0-44.47,0-44.47l-28.02-10.36,4.87-29.24-37.77-24.37-20.71-32.9-15.84-9.75v-77.37l-15.84,3.05-13.4,14.62-14.01,26.2s6.7,4.26-.61,14.01c-7.31,9.75-28.02,13.4-28.02,13.4,0,0,17.06,23.15,15.23,38.38s-29.85,34.73-29.85,34.73l-8.53,28.02-32.9,10.97-7.31,20.71s-1.22,13.4-20.71,10.97c-19.5-2.44-40.21-17.06-40.21-17.06l-26.81-13.4-30.46,21.93s-3.66,18.28-21.93,10.97c-18.28-7.31-15.84,0-43.86,12.18-28.02,12.18-53.61-28.02-53.61-28.02l-19.5-42.65s-18.28,4.87-21.93-7.31c-3.66-12.18,0-22.54,0-22.54l-23.15-15.23s-14.62,2.44,0-22.54c14.62-24.98,1.22-51.78,1.22-51.78v-20.71l-56.05-7.31s-57.27,8.53-56.05,29.24c1.22,20.71,17.06,30.46,17.06,30.46l-23.15,30.46-30.46,20.71s-7.31,14.62-38.99,8.53c-31.68-6.09-36.55-24.37-36.55-24.37v-26.2l36.55-43.26-7.31-24.37,30.46-52.39-7.31-20.71s-4.87-4.87-1.22-20.71,23.15-35.34,56.66-53c33.51-17.67,28.63-45.69,28.63-45.69l15.84-30.46,69.45-32.9,52.39-52.39-4.87-17.06,8.53-10.97-28.02-9.75s-12.18-2.44-2.44-17.06l9.75-14.62,20.71-26.81,21.93-17.06,45.08,9.75,26.81,7.31,34.12,6.09,15.84-7.31-2.44-12.18,18.28-12.18,17.06-8.53,15.84,14.62,4.87,15.84,6.09-12.18,10.97-8.53,13.4-10.97,17.06,4.87,18.28,7.31,10.97,7.31,23.15-12.18,15.84-12.18,26.2,5.48,14.01,4.26,12.18,3.66,9.75,12.18,14.62-7.31-7.31-17.06,38.99-19.5s-28.02,17.06-38.99,7.31-14.01-29.69-14.01-29.69l16.45-20.26,14.62-7.31S765.41-.58,773.33,.03s11.58,11.58,11.58,11.58L794.05,.03l9.14,12.79,12.18,14.62s4.87,9.75,10.97,7.31,18.28,2.44,18.28,2.44l10.97,15.84Z"/><polygon class="cls-1" points="780.82 147 816.24 147 816.24 196.41 865.24 196.41 865.24 231.82 816.65 231.82 816.65 280 780.82 280 780.82 231.41 731 231.41 731 196.41 781.24 196.41 780.82 147"/></svg>