<?xml version="1.0" encoding="UTF-8"?><svg id="Ebene_1" xmlns="http://www.w3.org/2000/svg" viewBox="0 0 1366 768"><defs><style>.cls-1,.cls-2{fill:none;}.cls-3{stroke-miterlimit:10;stroke-width:20.39px;}.cls-3,.cls-2,.cls-4{stroke:#011c40;}.cls-3,.cls-4{fill:#011c40;}.cls-2{stroke-width:50.5px;}.cls-2,.cls-5,.cls-6{stroke-miterlimit:10;}.cls-7,.cls-5{fill:#024059;}.cls-8{fill:#f28e13;}.cls-5{stroke:#024059;stroke-width:1.88px;}.cls-6{fill:#a62f03;stroke:#a62f03;stroke-width:22.53px;}.cls-4{stroke-miterlimit:10;stroke-width:13.76px;}</style></defs><path class="cls-8" d="M683.06,350.1l-262.62,273.45s242.06,283.7,534.66-6.87l-272.04-266.58h0Z"/><circle class="cls-2" cx="681.48" cy="383.48" r="355.29"/><rect class="cls-3" x="350.19" y="485.77" width="154.75" height="39.42" transform="translate(-234.06 481.29) rotate(-47.68)"/><path class="cls-1" d="M671.62,350.16l-236.17,248.62,127.28,91.18s95.74,41.3,167.08,20.65"/><rect class="cls-4" x="912.93" y="446.6" width="39.42" height="143.99" transform="translate(-93.54 811.37) rotate(-45)"/><rect class="cls-6" x="682.89" y="220.62" width="1.88" height="142.68"/><rect class="cls-5" x="696.03" y="201.85" width="85.57" height="76.43"/><polyline class="cls-7" points="791.77 214.99 791.77 278.28 781.6 291.59 832.6 291.59 812.65 253.29 838.16 214.99"/><circle class="cls-6" cx="683.83" cy="189.65" r="6.57"/></svg>